# xmcd
#
# Track frame offsets:
#	150
#	36022
#	63917
#	83500
#	99112
#	120540
#	137300
#	155207
#	179760
#	183850
#	209987
#	216815
#	232547
#
# Disc length: 3605 seconds
# Revision: 0
# Processed by: cddbd v1.5.2PL0 Copyright (c) Steve Scherf et al.
# Submitted via: dBpowerAMP V12.0
#
DISCID=a70e130d
DTITLE=Various Artist - Salsoul Nation Compiled and Mixed By Luke Howard
DYEAR=2005
DGENRE=Soul
TTITLE0=Loleatta Hollaway - Hit N Run (ON Re-Edit)
TTITLE1=Double Exposure - My Love Is Free (Gardening Club Re-Edit)
TTITLE2=First Choise - Break Away (Org Tee Scott 12" Re-Mix)
TTITLE3=Metropolis - I Love New York (Orig. 12" Mix)
TTITLE4=Charo - Dance A Little Bit Closer (Org. 12" Mix)
TTITLE5=Carol Williams - More (Org. 12" Mix)
TTITLE6=Lemon  - Freak On (Miss Cheesecake Re-Edit)
TTITLE7=Bunny Sigler - By The Way You Dance (Edit Of Larry Levan 12" Mix)
TTITLE8=Candidio - Rock and Shuffle (Ah-Ha) (Break Edit)
TTITLE9=Salsoul Orchestra - It's Good For The Soul (Respect Edit)
TTITLE10=Salsoul Orchestra - Don't Beat Around The Bush (HMD Tribal Edit)
TTITLE11=Kongas - Kongas Fun (Jungle Gardenia Re-Edit)
TTITLE12=Inner Life - Ain't No Mountain High Enough (Org 12" Mix)
EXTD=
EXTT0=
EXTT1=
EXTT2=
EXTT3=
EXTT4=
EXTT5=
EXTT6=
EXTT7=
EXTT8=
EXTT9=
EXTT10=
EXTT11=
EXTT12=
PLAYORDER=
